<svg width="100" height="100" viewBox="0 0 100 100" fill="none" xmlns="http://www.w3.org/2000/svg">
<path d="M48.4365 20.8745C48.9541 20.8472 49.4753 20.8333 49.9997 20.8333C66.108 20.8333 79.1663 33.8917 79.1663 50C79.1663 66.1083 66.108 79.1667 49.9997 79.1667C44.471 79.1667 39.3017 77.6284 34.8962 74.9566C50.2777 74.1442 62.4997 61.4149 62.4997 45.8311C62.4997 35.2514 56.8668 25.9874 48.4365 20.8745Z" fill="white"/>
<path d="M20.6026 15.1325L17.8461 16.0513C16.6694 16.4435 16.0811 16.6396 16.0811 17C16.0811 17.3604 16.6694 17.5565 17.846 17.9487L20.6026 18.8675L20.6026 18.8675C21.5337 19.1779 21.9992 19.3331 22.3331 19.6669C22.6669 20.0008 22.8221 20.4663 23.1325 21.3974L24.0513 24.1539C24.4435 25.3306 24.6396 25.9189 25 25.9189C25.3604 25.9189 25.5565 25.3306 25.9487 24.154L26.8675 21.3974L26.8675 21.3974C27.1779 20.4663 27.3331 20.0008 27.6669 19.6669C28.0008 19.3331 28.4663 19.1779 29.3974 18.8675L29.3974 18.8675L32.1539 17.9487C33.3306 17.5565 33.9189 17.3604 33.9189 17C33.9189 16.6396 33.3306 16.4435 32.154 16.0513L29.3974 15.1325C28.4663 14.8221 28.0008 14.6669 27.6669 14.3331C27.3331 13.9992 27.1779 13.5337 26.8675 12.6026L26.8675 12.6026L25.9487 9.84605C25.5565 8.66944 25.3604 8.08114 25 8.08114C24.6396 8.08114 24.4435 8.66944 24.0513 9.84605L23.1325 12.6026C22.8221 13.5337 22.6669 13.9992 22.3331 14.3331C21.9992 14.6669 21.5337 14.8221 20.6026 15.1325Z" fill="white"/>
</svg>
