<svg width="100" height="100" viewBox="0 0 100 100" fill="none" xmlns="http://www.w3.org/2000/svg">
<path fill-rule="evenodd" clip-rule="evenodd" d="M25 58.3334H50H83.5C85.7091 58.3334 87.5 56.5425 87.5 54.3334V37.3334C87.5 35.1242 85.7091 33.3334 83.5 33.3334H75.321C73.1676 33.3334 72.0909 33.3334 71.3538 32.8644C70.6168 32.3954 70.0388 31.159 68.8826 28.6863C65.5627 21.5859 58.3558 16.6667 50 16.6667C41.5301 16.6667 34.2407 21.7212 30.9836 28.9784C30.0018 31.1658 29.511 32.2595 28.9019 32.7222C28.759 32.8308 28.6811 32.8812 28.5235 32.9672C27.852 33.3334 26.9013 33.3334 25 33.3334V33.3334C18.0964 33.3334 12.5 38.9298 12.5 45.8334C12.5 52.7369 18.0964 58.3334 25 58.3334Z" fill="white"/>
<path d="M50 79.1667V70.8333" stroke="white" stroke-width="2" stroke-linecap="round"/>
<path d="M70.8333 83.3333V70.8333" stroke="white" stroke-width="2" stroke-linecap="round"/>
<path d="M29.1667 87.5V70.8333" stroke="white" stroke-width="2" stroke-linecap="round"/>
</svg>
