<svg width="100" height="100" viewBox="0 0 100 100" fill="none" xmlns="http://www.w3.org/2000/svg">
<path fill-rule="evenodd" clip-rule="evenodd" d="M70.2991 17.584C72.2296 18.0468 73.1949 18.2782 73.295 18.945C73.3952 19.6117 72.455 20.1669 70.5747 21.2773C60.7542 27.0767 54.1667 37.7691 54.1667 50C54.1667 62.231 60.7542 72.9233 70.5747 78.7227C72.455 79.8331 73.3952 80.3883 73.295 81.0551C73.1949 81.7218 72.2296 81.9532 70.2991 82.416C67.7973 83.0157 65.1858 83.3333 62.5001 83.3333C44.0906 83.3333 29.1667 68.4095 29.1667 50C29.1667 31.5905 44.0906 16.6667 62.5001 16.6667C65.1858 16.6667 67.7973 16.9843 70.2991 17.584Z" fill="white"/>
</svg>
