<svg width="100" height="100" viewBox="0 0 100 100" fill="none" xmlns="http://www.w3.org/2000/svg">
<path d="M25 50H75C81.9036 50 87.5 44.4035 87.5 37.5C87.5 30.5964 81.9036 25 75 25C72.3332 25 70.1084 23.078 69.0164 20.645C65.7593 13.3878 58.4699 8.33331 50 8.33331C41.5301 8.33331 34.2407 13.3878 30.9836 20.645C29.8916 23.078 27.6668 25 25 25C18.0964 25 12.5 30.5964 12.5 37.5C12.5 44.4035 18.0964 50 25 50Z" fill="white"/>
<path fill-rule="evenodd" clip-rule="evenodd" d="M36.83 74.1667H49.4999C49.7356 74.1667 49.8534 74.1667 49.9266 74.2399C49.9999 74.3131 49.9999 74.431 49.9999 74.6667V89.8305C49.9999 90.5699 49.9999 90.9396 50.1842 90.9898C50.3685 91.04 50.5559 90.7213 50.9308 90.084L64.8936 66.3474C65.6806 65.0094 66.0742 64.3404 65.7862 63.8369C65.4982 63.3333 64.722 63.3333 63.1697 63.3333H50.4999C50.2642 63.3333 50.1463 63.3333 50.0731 63.2601C49.9999 63.1869 49.9999 63.069 49.9999 62.8333V47.6695C49.9999 46.9301 49.9999 46.5604 49.8156 46.5102C49.6312 46.46 49.4438 46.7787 49.0689 47.416L35.1062 71.1526C34.3191 72.4906 33.9256 73.1596 34.2136 73.6632C34.5016 74.1667 35.2777 74.1667 36.83 74.1667Z" fill="white"/>
</svg>
