<svg width="170" height="71" viewBox="0 0 170 71" fill="none" xmlns="http://www.w3.org/2000/svg">
<path fill-rule="evenodd" clip-rule="evenodd" d="M49.9115 21.2015C51.5918 22.0396 52.4319 22.4586 52.3789 23.131C52.326 23.8034 51.2599 24.1395 49.1279 24.8117C43.8778 26.467 39.4288 30.4585 37.4005 36.0311C35.3723 41.6036 36.2148 47.5211 39.1725 52.1638C40.3737 54.0492 40.9742 54.9919 40.5826 55.541C40.191 56.0901 39.2781 55.8711 37.4522 55.4331C36.7774 55.2712 36.1048 55.0694 35.4371 54.8264C25.9225 51.3633 21.0167 40.8429 24.4798 31.3283C27.9428 21.8137 38.4632 16.9079 47.9778 20.371C48.6455 20.614 49.2905 20.8918 49.9115 21.2015Z" fill="#7F77F7"/>
<path d="M55.15 34H58.15V52.39H69.52V55H55.15V34ZM88.3574 39.1V55H85.6274V52.6C85.0474 53.42 84.2774 54.06 83.3174 54.52C82.3774 54.96 81.3474 55.18 80.2274 55.18C78.1074 55.18 76.4374 54.6 75.2174 53.44C73.9974 52.26 73.3874 50.53 73.3874 48.25V39.1H76.2674V47.92C76.2674 49.46 76.6374 50.63 77.3774 51.43C78.1174 52.21 79.1774 52.6 80.5574 52.6C82.0774 52.6 83.2774 52.14 84.1574 51.22C85.0374 50.3 85.4774 49 85.4774 47.32V39.1H88.3574ZM103.53 38.95C105.55 38.95 107.15 39.54 108.33 40.72C109.53 41.88 110.13 43.59 110.13 45.85V55H107.25V46.18C107.25 44.64 106.88 43.48 106.14 42.7C105.4 41.92 104.34 41.53 102.96 41.53C101.4 41.53 100.17 41.99 99.2702 42.91C98.3702 43.81 97.9202 45.11 97.9202 46.81V55H95.0402V39.1H97.8002V41.5C98.3802 40.68 99.1602 40.05 100.14 39.61C101.14 39.17 102.27 38.95 103.53 38.95ZM122.45 38.95C124.65 38.95 126.33 39.49 127.49 40.57C128.67 41.65 129.26 43.26 129.26 45.4V55H126.53V52.9C126.05 53.64 125.36 54.21 124.46 54.61C123.58 54.99 122.53 55.18 121.31 55.18C119.53 55.18 118.1 54.75 117.02 53.89C115.96 53.03 115.43 51.9 115.43 50.5C115.43 49.1 115.94 47.98 116.96 47.14C117.98 46.28 119.6 45.85 121.82 45.85H126.38V45.28C126.38 44.04 126.02 43.09 125.3 42.43C124.58 41.77 123.52 41.44 122.12 41.44C121.18 41.44 120.26 41.6 119.36 41.92C118.46 42.22 117.7 42.63 117.08 43.15L115.88 40.99C116.7 40.33 117.68 39.83 118.82 39.49C119.96 39.13 121.17 38.95 122.45 38.95ZM121.79 52.96C122.89 52.96 123.84 52.72 124.64 52.24C125.44 51.74 126.02 51.04 126.38 50.14V47.92H121.94C119.5 47.92 118.28 48.74 118.28 50.38C118.28 51.18 118.59 51.81 119.21 52.27C119.83 52.73 120.69 52.96 121.79 52.96ZM139.42 55.36C138 55.36 136.69 55.1 135.49 54.58C134.31 54.04 133.34 53.28 132.58 52.3L135.28 49.06C136.42 50.6 137.72 51.37 139.18 51.37C141.16 51.37 142.15 50.21 142.15 47.89V37.9H134.77V34H146.98V47.62C146.98 50.2 146.34 52.14 145.06 53.44C143.78 54.72 141.9 55.36 139.42 55.36ZM159.88 55.36C158.22 55.36 156.61 55.14 155.05 54.7C153.51 54.24 152.27 53.65 151.33 52.93L152.98 49.27C153.88 49.93 154.95 50.46 156.19 50.86C157.43 51.26 158.67 51.46 159.91 51.46C161.29 51.46 162.31 51.26 162.97 50.86C163.63 50.44 163.96 49.89 163.96 49.21C163.96 48.71 163.76 48.3 163.36 47.98C162.98 47.64 162.48 47.37 161.86 47.17C161.26 46.97 160.44 46.75 159.4 46.51C157.8 46.13 156.49 45.75 155.47 45.37C154.45 44.99 153.57 44.38 152.83 43.54C152.11 42.7 151.75 41.58 151.75 40.18C151.75 38.96 152.08 37.86 152.74 36.88C153.4 35.88 154.39 35.09 155.71 34.51C157.05 33.93 158.68 33.64 160.6 33.64C161.94 33.64 163.25 33.8 164.53 34.12C165.81 34.44 166.93 34.9 167.89 35.5L166.39 39.19C164.45 38.09 162.51 37.54 160.57 37.54C159.21 37.54 158.2 37.76 157.54 38.2C156.9 38.64 156.58 39.22 156.58 39.94C156.58 40.66 156.95 41.2 157.69 41.56C158.45 41.9 159.6 42.24 161.14 42.58C162.74 42.96 164.05 43.34 165.07 43.72C166.09 44.1 166.96 44.7 167.68 45.52C168.42 46.34 168.79 47.45 168.79 48.85C168.79 50.05 168.45 51.15 167.77 52.15C167.11 53.13 166.11 53.91 164.77 54.49C163.43 55.07 161.8 55.36 159.88 55.36Z" fill="white"/>
</svg>
