<svg width="210" height="257" viewBox="0 0 210 257" fill="none" xmlns="http://www.w3.org/2000/svg">
<path fill-rule="evenodd" clip-rule="evenodd" d="M193.409 84.0115C195.025 85.2629 195.833 85.8886 195.65 86.5375C195.467 87.1863 194.402 87.304 192.272 87.5395C167.859 90.2378 145.87 106.379 136.901 131.022C127.932 155.665 134.401 182.163 151.368 199.923C152.848 201.472 153.589 202.247 153.312 202.862C153.034 203.476 152.013 203.436 149.971 203.356C143.239 203.093 136.432 201.796 129.761 199.368C95.1627 186.775 77.3235 148.519 89.9164 113.921C102.509 79.3221 140.765 61.4829 175.364 74.0758C182.035 76.5037 188.082 79.8857 193.409 84.0115Z" fill="#7F77F7"/>
</svg>
