<?xml version="1.0" standalone="no"?><svg xmlns="http://www.w3.org/2000/svg" viewBox="0 0 1440 320"><path fill="#9f99f9" fill-opacity="1" d="M0,160L17.1,181.3C34.3,203,69,245,103,229.3C137.1,213,171,139,206,128C240,117,274,171,309,197.3C342.9,224,377,224,411,213.3C445.7,203,480,181,514,176C548.6,171,583,181,617,186.7C651.4,192,686,192,720,170.7C754.3,149,789,107,823,106.7C857.1,107,891,149,926,154.7C960,160,994,128,1029,106.7C1062.9,85,1097,75,1131,69.3C1165.7,64,1200,64,1234,90.7C1268.6,117,1303,171,1337,197.3C1371.4,224,1406,224,1423,224L1440,224L1440,320L1422.9,320C1405.7,320,1371,320,1337,320C1302.9,320,1269,320,1234,320C1200,320,1166,320,1131,320C1097.1,320,1063,320,1029,320C994.3,320,960,320,926,320C891.4,320,857,320,823,320C788.6,320,754,320,720,320C685.7,320,651,320,617,320C582.9,320,549,320,514,320C480,320,446,320,411,320C377.1,320,343,320,309,320C274.3,320,240,320,206,320C171.4,320,137,320,103,320C68.6,320,34,320,17,320L0,320Z"></path></svg>