<svg width="879" height="118" viewBox="0 0 879 118" fill="none" xmlns="http://www.w3.org/2000/svg">
<path d="M871 0H8C3.58172 0 0 3.58172 0 8V110C0 114.418 3.58172 118 8 118H871C875.418 118 879 114.418 879 110V8C879 3.58172 875.418 0 871 0Z" fill="white"/>
<path d="M0 4C0 2.93913 0.421427 1.92172 1.17157 1.17157C1.92172 0.421427 2.93913 0 4 0L15 0V118H4C2.93913 118 1.92172 117.579 1.17157 116.828C0.421427 116.078 0 115.061 0 114V4Z" fill="#7F77F7"/>
<path d="M879 113C879 114.061 878.579 115.078 877.828 115.828C877.078 116.579 876.061 117 875 117H864V-1H875C876.061 -1 877.078 -0.578576 877.828 0.17157C878.579 0.921715 879 1.93913 879 3V113Z" fill="#7F77F7"/>
<path fill-rule="evenodd" clip-rule="evenodd" d="M68.37 20.9017C70.3002 20.4376 71.2653 20.2056 71.6572 20.7542C72.0491 21.3028 71.4635 22.2243 70.2923 24.0673C64.175 33.6931 63.1598 46.2107 68.7125 57.1085C74.2652 68.0064 84.9889 74.5427 96.3719 75.2516C98.5514 75.3873 99.6411 75.4552 99.8546 76.0947C100.068 76.7342 99.3131 77.3786 97.8031 78.6674C95.8462 80.3376 93.6635 81.8062 91.2706 83.0255C74.8676 91.3832 54.7951 84.8612 46.4373 68.4583C38.0796 52.0553 44.6016 31.9828 61.0045 23.625C63.3975 22.4058 65.8686 21.5032 68.37 20.9017Z" fill="#9F99F9"/>
<path d="M840.69 18H166.31C162.273 18 159 19.7909 159 22V30C159 32.2091 162.273 34 166.31 34H840.69C844.727 34 848 32.2091 848 30V22C848 19.7909 844.727 18 840.69 18Z" fill="#7F77F7"/>
<path d="M840.69 51H166.31C162.273 51 159 52.7909 159 55V63C159 65.2091 162.273 67 166.31 67H840.69C844.727 67 848 65.2091 848 63V55C848 52.7909 844.727 51 840.69 51Z" fill="#9F99F9"/>
<path d="M840.69 83H166.31C162.273 83 159 84.7909 159 87V95C159 97.2091 162.273 99 166.31 99H840.69C844.727 99 848 97.2091 848 95V87C848 84.7909 844.727 83 840.69 83Z" fill="#BFBCF1"/>
</svg>
