<svg width="427" height="137" viewBox="0 0 427 137" fill="none" xmlns="http://www.w3.org/2000/svg">
<path d="M419 0H8C3.58172 0 0 3.58172 0 8V129C0 133.418 3.58172 137 8 137H419C423.418 137 427 133.418 427 129V8C427 3.58172 423.418 0 419 0Z" fill="black"/>
<path d="M401.446 18H73.5544C71.5913 18 70 19.7909 70 22V30C70 32.2091 71.5913 34 73.5544 34H401.446C403.409 34 405 32.2091 405 30V22C405 19.7909 403.409 18 401.446 18Z" fill="#7F77F7"/>
<path d="M401.446 56H73.5544C71.5913 56 70 57.7909 70 60V68C70 70.2091 71.5913 72 73.5544 72H401.446C403.409 72 405 70.2091 405 68V60C405 57.7909 403.409 56 401.446 56Z" fill="#7F77F7"/>
<path d="M401.446 94H73.5544C71.5913 94 70 95.7909 70 98V106C70 108.209 71.5913 110 73.5544 110H401.446C403.409 110 405 108.209 405 106V98C405 95.7909 403.409 94 401.446 94Z" fill="#7F77F7"/>
<circle cx="41" cy="24" r="10" fill="white"/>
<circle cx="41" cy="24" r="10" fill="white"/>
<circle cx="41" cy="24" r="10" fill="white"/>
<circle cx="41" cy="24" r="10" fill="white"/>
<circle cx="41" cy="64" r="10" fill="white"/>
<circle cx="41" cy="64" r="10" fill="white"/>
<circle cx="41" cy="64" r="10" fill="white"/>
<circle cx="41" cy="64" r="10" fill="white"/>
<circle cx="41" cy="104" r="10" fill="white"/>
<circle cx="41" cy="104" r="10" fill="white"/>
<circle cx="41" cy="104" r="10" fill="white"/>
<circle cx="41" cy="104" r="10" fill="white"/>
</svg>
